#!OML:ASF F:\VICON\USERDATA\INSTALL\rory3\rory3.ASF
:FULLY-SPECIFIED
:DEGREES
176
root -0.218843 24.2996 -0.673684 2.58211 0.112552 1.45671
lowerback 10.0504 -0.0663482 0.0329086
upperback 0.0651254 -0.0590449 0.441843
thorax -5.57364 -0.0238739 0.451678
lowerneck -15.7525 -0.0665787 -6.42111
upperneck -0.812868 0.844722 5.39218
head 2.49102 0.621131 3.02711
rclavicle 1.19271e-015 4.37326e-015
rhumerus -21.4221 -18.2541 -30.6357
rradius 74.8759
rwrist 13.1989
rhand -35.4449 2.59409
rfingers 7.12502
rthumb -8.5741 -27.2118
lclavicle 1.19271e-015 4.37326e-015
lhumerus -20.4616 25.2544 28.2622
lradius 82.1615
lwrist 15.6426
lhand -31.4182 23.6568
lfingers 7.12502
lthumb -4.68692 53.5849
rfemur -7.92454 10.2007 17.9279
rtibia 26.0933
rfoot 20.2534 -18.8641
rtoes 3.04224
lfemur -7.51004 4.44107 -18.9952
ltibia 22.776
lfoot 26.1714 14.9559
ltoes 8.51262
177
root -0.240241 24.4872 -0.694765 2.36093 0.150889 1.55396
lowerback 10.3731 -0.0406237 -0.156921
upperback 0.135834 -0.0523316 0.34913
thorax -5.68084 -0.0165629 0.461404
lowerneck -15.3437 -0.0771848 -6.13889
upperneck -0.825183 0.756754 5.42338
head 2.41618 0.574294 2.96988
rclavicle 3.32964e-015 -3.18055e-015
rhumerus -22.8506 -19.5161 -30.3507
rradius 72.7884
rwrist 13.6387
rhand -35.2687 1.87183
rfingers 7.12502
rthumb -8.40406 -27.941
lclavicle 3.32964e-015 -3.18055e-015
lhumerus -22.0568 26.4712 28.765
lradius 81.1044
lwrist 15.5863
lhand -31.5201 23.5441
lfingers 7.12502
lthumb -4.78534 53.47
rfemur -8.40055 10.1108 17.9495
rtibia 27.7648
rfoot 20.6321 -16.2392
rtoes 3.17656
lfemur -7.77112 4.69775 -19.0843
ltibia 23.9871
lfoot 27.086 12.7666
ltoes 7.11771
178
root -0.258526 24.6627 -0.709875 2.18926 0.180845 1.60046
lowerback 10.5765 -0.0165345 -0.217771
upperback 0.21209 -0.0342532 0.240138
thorax -5.71518 -0.00754442 0.379222
lowerneck -15.0612 -0.0913929 -6.0507
upperneck -0.683379 0.695284 5.62572
head 2.41824 0.547267 3.01694
rclavicle 9.14409e-015 -8.74653e-015
rhumerus -24.203 -20.8242 -30.1179
rradius 70.6355
rwrist 13.8224
rhand -35.3516 0.375885
rfingers 7.12502
rthumb -8.48407 -29.4337
lclavicle 9.14409e-015 -8.74653e-015
lhumerus -23.4539 27.6936 29.2845
lradius 79.7891
lwrist 15.5587
lhand -31.6673 23.2913
lfingers 7.12502
lthumb -4.92748 53.214
rfemur -8.81498 10.1217 17.9984
rtibia 29.1367
rfoot 20.8368 -13.7097
rtoes 2.07027
lfemur -7.96162 4.93808 -19.0889
ltibia 24.8823
lfoot 27.9806 10.7368
ltoes 4.45635
179
root -0.272428 24.8295 -0.718388 2.0491 0.156282 1.75096
lowerback 10.7414 0.0305627 -0.345628
upperback 0.258658 0.00497562 0.116504
thorax -5.75913 0.0135507 0.316021
lowerneck -14.937 -0.111034 -6.07837
upperneck -0.323205 0.644705 5.90206
head 2.52522 0.52931 3.12028
rclavicle 1.15295e-014 -2.38542e-015
rhumerus -25.4919 -22.0023 -29.8652
rradius 68.4505
rwrist 13.9068
rhand -35.9961 -1.59181
rfingers 7.12502
rthumb -9.10608 -31.3752
lclavicle 1.15295e-014 -2.38542e-015
lhumerus -24.8839 28.6629 29.7687
lradius 78.4171
lwrist 15.8685
lhand -31.7628 23.453
lfingers 7.12502
lthumb -5.01968 53.3735
rfemur -9.12135 10.1717 17.8745
rtibia 30.1545
rfoot 21.072 -11.5322
rtoes 0.0513756
lfemur -8.00636 5.00345 -19.2174
ltibia 25.447
lfoot 28.4016 9.40821
ltoes 1.80148
180
root -0.281718 24.9891 -0.722575 1.95374 0.215689 1.98911
lowerback 10.8177 0.0312358 -0.544522
upperback 0.318708 -0.0264459 -0.00937912
thorax -5.73855 0.00166662 0.301298
lowerneck -14.9811 -0.147393 -5.90017
upperneck 0.109373 0.551981 5.93489
head 2.68815 0.484294 3.10073
rclavicle -8.87077e-015 8.34896e-015
rhumerus -26.5494 -23.2305 -29.6716
rradius 66.1686
rwrist 14.2287
rhand -35.6203 -1.89673
rfingers 7.12502
rthumb -8.74338 -31.6956
lclavicle -8.87077e-015 8.34896e-015
lhumerus -26.3002 29.523 30.2668
lradius 76.9868
lwrist 16.3847
lhand -32.1859 23.9942
lfingers 7.12502
lthumb -5.42827 53.9047
rfemur -9.28694 10.2008 17.6276
rtibia 30.8129
rfoot 21.1094 -9.86497
rtoes -2.47035
lfemur -7.91493 4.75727 -19.469
ltibia 25.648
lfoot 28.5092 8.53285
ltoes 0.306119
181
root -0.287203 25.1388 -0.719514 1.83681 0.285155 2.21024
lowerback 10.7976 0.00194266 -0.68742
upperback 0.424521 -0.0894267 -0.128829
thorax -5.61532 -0.0276463 0.266572
lowerneck -15.3711 -0.191625 -5.70808
upperneck 1.03575 0.449546 6.10596
head 2.73418 0.459368 2.81968
rclavicle 9.69075e-015 1.59028e-015
rhumerus -27.364 -24.496 -29.5736
rradius 63.783
rwrist 14.3534
rhand -34.1608 -0.767387
rfingers 7.12502
rthumb -7.33475 -30.6203
lclavicle 9.69075e-015 1.59028e-015
lhumerus -27.5422 30.3402 30.7574
lradius 75.3266
lwrist 17.1924
lhand -32.5909 24.4486
lfingers 7.12502
lthumb -5.81929 54.3487
rfemur -9.25625 10.3565 17.4175
rtibia 31.1541
rfoot 20.7736 -8.67752
rtoes -3.95318
lfemur -7.62955 4.24748 -19.71
ltibia 25.525
lfoot 28.3297 7.99303
ltoes 0.12888
182
root -0.290332 25.2791 -0.709087 1.76774 0.389416 2.41193
lowerback 10.6236 -0.0408064 -0.792088
upperback 0.512887 -0.16266 -0.232029
thorax -5.42412 -0.0631454 0.228545
lowerneck -15.348 -0.199105 -5.69775
upperneck 1.4076 0.421868 6.13111
head 2.84534 0.446714 2.82587
rclavicle 9.26834e-015 -5.96354e-015
rhumerus -28.1872 -25.727 -29.3995
rradius 61.4223
rwrist 14.2879
rhand -33.1086 0.46409
rfingers 7.12502
rthumb -6.31909 -29.4217
lclavicle 9.26834e-015 -5.96354e-015
lhumerus -28.7193 30.941 31.2894
lradius 73.619
lwrist 18.3883
lhand -32.8314 24.5948
lfingers 7.12502
lthumb -6.05139 54.4884
rfemur -9.1468 10.5854 17.2287
rtibia 31.2018
rfoot 20.1261 -7.86208
rtoes -3.62391
lfemur -7.31127 3.64814 -19.9331
ltibia 25.1915
lfoot 27.9481 7.55227
ltoes -0.231111
183
root -0.296327 25.4049 -0.698459 1.74244 0.426045 2.50679
lowerback 10.4051 -0.0512187 -0.81984
upperback 0.580532 -0.181665 -0.317574
thorax -5.23069 -0.0736972 0.157242
lowerneck -15.1935 -0.190574 -5.73655
upperneck 1.61845 0.41805 6.25299
head 2.88613 0.447962 2.86972
rclavicle 1.24737e-014 -1.03368e-014
rhumerus -29.0212 -27.0499 -29.2297
rradius 59.0936
rwrist 14.4036
rhand -33.0144 0.704319
rfingers 7.12502
rthumb -6.22809 -29.1841
lclavicle 1.24737e-014 -1.03368e-014
lhumerus -29.7653 31.2645 31.8141
lradius 71.8455
lwrist 19.7629
lhand -33.0752 24.6993
lfingers 7.12502
lthumb -6.28678 54.586
rfemur -9.02377 10.7984 17.1479
rtibia 31.0422
rfoot 19.0959 -7.28104
rtoes -3.83449
lfemur -7.0292 3.14192 -20.0251
ltibia 24.752
lfoot 27.3606 7.23664
ltoes -1.30913
